<?xml version="1.0" encoding="utf-8"?>
<!-- Generator: Adobe Illustrator 26.0.1, SVG Export Plug-In . SVG Version: 6.00 Build 0)  -->
<svg version="1.1" id="Слой_1" xmlns="http://www.w3.org/2000/svg" xmlns:xlink="http://www.w3.org/1999/xlink" x="0px" y="0px"
	 viewBox="0 0 2000 2000" style="enable-background:new 0 0 2000 2000;" xml:space="preserve">
<style type="text/css">
	.st0{fill:#FFCC00;}
</style>
<g>
	<g>
		<path class="st0" d="M45.2,1500.4l369-1001h119.7l369,1001.1H751.6L474,692.9l-277.5,807.4L45.2,1500.4z M239.1,1314v-121.3h478.1
			V1314H239.1z"/>
	</g>
	<path class="st0" d="M1950.8,1105.8c-4.9-30.6-15.1-90.2-62.6-144.5c-25.5-29-52.7-46.6-71.5-56.6c-9-5.4-17.9-11-26.8-16.4
		c0-41.2,0-82.4,0-123.6h-114.7c0,30.7,0,61.6,0,92.3c-37-4.9-80.8-7.8-129.6-5.9c-69,2.6-128,14.1-174.4,26.8
		c-8-55.7-15.9-111.2-23.9-166.9l0,0c87.9,7.4,191.5,10.5,284.5-17.9c66.7-20.5,161.5-47.6,286-77.4l-43.3-108.9
		c-96.7,30.2-180.9,49.7-247.3,62.6c-137.2,26.7-217.7,29.3-251.8,29.9c-13.7,0.2-25,0.1-32.8,0v-100h-117.3v93.9H988.6L963,721.5
		h271.4c-2.1,53.4,1.3,115,16.4,181.8c3.2,13.8,6.6,27.3,10.4,40.2c-37,17.9-111.7,60.2-163.8,146
		c-14.6,24.1-105.9,174.4-34.3,284.5c45.4,69.6,130.4,84,144.5,86.4c72.9,12.3,135.6-15.6,177.2-34.3c25.6-11.5,45.8-23.6,59.6-32.8
		l84.9,107.3l80.4-89.5l-70-95.4c55.5-60.2,98.4-112.2,129.6-151.9c21.6-27.6,42.5-55.6,58.1-97.4c11.5-30.7,15.9-58.1,17.9-76.9
		c20.9,18,67.2,63.5,77.4,132.5c4.9,32.9,0,60.7-3,77.4c-2.2,12.8-11.3,58.4-43.2,108.8c-16.6,26.1-34.5,45.6-49.3,59.6l80.4,87.9
		c27.1-22.3,66.8-60.9,98.3-119.2C1922.4,1306.7,1968.6,1218.1,1950.8,1105.8z M1334.9,1312.8c-28.1,13-66.9,30.4-117,31.2
		c-30.4,0.5-45.5,0.9-56.6-9c-39-34.2,10.3-140.9,13.4-147.5c11.8-25.1,37.6-69.4,92.3-108.8l20.8-11.9
		c31.2,73.5,62.6,146.9,93.9,220.5C1371,1294.2,1355.1,1303.5,1334.9,1312.8z M1575.5,1098.4c-33,55.2-70.9,93.6-98.7,117.6
		l-84.5-205.6c29.9-15.3,75.5-34.2,134.2-41.7c40.6-5.3,75.7-3.4,102.8,0C1620.6,1002.5,1605.1,1048.7,1575.5,1098.4z"/>
</g>
</svg>
